<?xml version="1.0" encoding="UTF-8" standalone="no"?>
<!-- Created with Inkscape (http://www.inkscape.org/) -->

<svg
   width="512mm"
   height="512mm"
   viewBox="0 0 511.99999 512.00002"
   version="1.1"
   id="svg1"
   inkscape:version="1.4.3 (0d15f75042, 2025-12-25)"
   sodipodi:docname="icon.svg"
   xmlns:inkscape="http://www.inkscape.org/namespaces/inkscape"
   xmlns:sodipodi="http://sodipodi.sourceforge.net/DTD/sodipodi-0.dtd"
   xmlns="http://www.w3.org/2000/svg"
   xmlns:svg="http://www.w3.org/2000/svg">
  <sodipodi:namedview
     id="namedview1"
     pagecolor="#ffffff"
     bordercolor="#000000"
     borderopacity="0.25"
     inkscape:showpageshadow="2"
     inkscape:pageopacity="0.0"
     inkscape:pagecheckerboard="0"
     inkscape:deskcolor="#d1d1d1"
     inkscape:document-units="mm"
     inkscape:zoom="0.1631514"
     inkscape:cx="551.63487"
     inkscape:cy="999.07204"
     inkscape:window-width="1280"
     inkscape:window-height="772"
     inkscape:window-x="0"
     inkscape:window-y="0"
     inkscape:window-maximized="1"
     inkscape:current-layer="layer1" />
  <defs
     id="defs1" />
  <g
     inkscape:label="Layer 1"
     inkscape:groupmode="layer"
     id="layer1"
     transform="translate(-47.162302,-110.68079)">
    <path
       style="fill:#000000;stroke-width:1.28061"
       d="M 155.49524,621.69705 C 105.63841,616.26449 64.316979,580.94304 50.701043,532.11916 l -3.518269,-12.61575 -0.01024,-151.95754 -0.01024,-151.95763 2.278994,-9.24798 c 5.002987,-20.3017 12.777069,-36.05414 25.47261,-51.61458 l 7.628269,-9.34972 7.841957,-6.33232 c 17.315356,-13.98202 36.436596,-22.74251 57.610026,-26.39428 l 11.36966,-1.96093 144.02758,-0.004 144.02758,-0.004 9.92349,1.3609 9.92352,1.36093 10.48215,3.79806 c 38.26878,13.86581 64.24489,40.58884 77.71512,79.94918 l 3.69905,10.80871 v 157.04406 157.04402 l -1.80585,6.94369 c -0.99325,3.81902 -3.6524,11.58134 -5.90927,17.24964 l -4.10343,10.30599 -6.16143,9.3912 c -8.69418,13.2516 -15.40748,20.7552 -26.31361,29.41131 l -9.47247,7.51816 -13.09681,6.27291 -13.09684,6.27292 -12.89672,3.54573 -12.8967,3.54574 -144.44332,0.0884 -144.44334,0.0884 z m 303.7206,-99.33248 0.003,-24.47853 -16.5496,0.6358 -16.54964,0.6358 -5.37754,3.51498 c -2.95762,1.93321 -5.37754,4.07908 -5.37754,4.76856 v 1.25357 H 310.25594 205.14764 l 0.0623,-0.95372 c 0.0341,-0.52453 7.76675,-9.18391 17.18332,-19.24306 l 17.12105,-18.28934 -9.8832,-18.37767 c -5.43575,-10.10774 -10.27025,-18.33235 -10.74335,-18.27689 -0.47311,0.0553 -5.33679,5.11113 -10.80819,11.23481 -11.27602,12.62037 -31.02749,34.0413 -45.79703,49.66802 l -9.97941,10.55855 -2.1063,7.14401 -2.10633,7.14402 1.48213,6.53008 1.48214,6.53014 3.95101,4.72611 3.95102,4.72611 4.71758,2.45741 4.71759,2.45735 145.41056,0.0562 145.41059,0.0562 z m -114.38581,-55.31388 -0.24713,-12.39947 -9.23549,-0.37632 -9.23544,-0.37631 0.88245,-4.63798 c 1.51052,-7.93903 7.21663,-20.49653 13.90166,-30.59355 l 6.41455,-9.68856 7.9644,-7.85281 7.9644,-7.85287 10.10697,-6.50552 c 5.55881,-3.57799 10.60372,-6.50547 11.21082,-6.50547 0.60715,0 -2.75026,-5.86531 -7.46088,-13.03403 -13.14432,-20.00319 -36.88501,-60.23709 -59.25288,-100.41725 -4.17318,-7.49641 -8.02285,-13.64782 -8.55483,-13.66987 l -0.96723,-0.0385 v 55.85311 55.85308 l 3.86902,3.81483 3.86902,3.81483 v 5.31146 5.3114 l -4.38491,4.32351 -4.38487,4.32347 h -5.9121 -5.91215 l -4.21176,-3.71055 -4.21179,-3.71049 v -5.75597 -5.75592 l 4.24677,-4.32019 4.24677,-4.3202 -0.17303,-55.51616 -0.17304,-55.51621 -0.84939,0.0241 c -0.46716,0.0144 -6.30025,9.59839 -12.96239,21.29953 -20.74748,36.44002 -43.16768,74.05033 -53.45839,89.67743 -11.77845,17.8863 -11.61772,14.84851 -1.11129,21.00286 l 8.76318,5.13319 9.28822,8.47906 9.28824,8.47904 7.23318,10.71859 7.23317,10.71855 3.5728,8.55811 c 1.96503,4.70694 3.92057,10.41783 4.34565,12.69086 l 0.77285,4.13276 h -7.60032 c -4.18018,0 -8.51831,0.34748 -9.6403,0.77186 l -2.03999,0.77186 v 11.94424 11.94429 l 43.52644,9.9e-4 43.52646,9.9e-4 z m 65.4394,-194.23988 c 11.57625,-12.58904 26.03553,-28.03913 32.13174,-34.33357 l 11.08408,-11.4445 1.57427,-5.23398 c 1.92469,-6.39897 1.98041,-11.07548 0.20717,-17.3719 l -1.35283,-4.8033 -4.11001,-4.61548 -4.11005,-4.61554 -5.16975,-2.31567 -5.16973,-2.31567 -144.76575,-0.0289 -144.76575,-0.0288 v 24.5845 c 0,13.52145 0.23943,24.82288 0.5321,25.11433 0.29264,0.29125 8.10519,0.24366 17.36124,-0.10574 l 16.82918,-0.6358 5.57924,-5.40435 5.57924,-5.40436 h 42.57372 42.57372 l 1.62973,4.44381 1.62974,4.44386 5.50455,3.18067 5.50454,3.18072 5.96446,0.80608 5.96446,0.80608 6.183,-1.53238 6.18302,-1.53237 4.00244,-3.00597 4.00247,-3.00602 1.63511,-3.89226 1.6351,-3.89226 h 36.59922 c 20.12957,0 36.59923,0.33018 36.59923,0.7335 0,0.40324 -8.27002,9.58518 -18.37788,20.40388 -10.1078,10.8187 -18.52483,20.07922 -18.70455,20.57886 -0.17986,0.49964 3.76998,8.05549 8.77711,16.79076 5.00713,8.73525 9.44313,16.93546 9.85779,18.22267 l 0.75397,2.34037 3.51352,-3.61196 c 1.93249,-1.9866 12.98505,-13.91206 24.56124,-26.50098 z"
       id="path1"
       sodipodi:nodetypes="sscccsscsscccccsscccsscsscccccccsccccssccccscscssccccccccccccccccsscccsssscccccccccccccccccccccssscccccsscsccccccccscsscccccccscccccccccccccccccccsssssscscc" />
  </g>
</svg>
